<?xml version="1.0" encoding="UTF-8" standalone="no"?>
<!-- Created with Inkscape (http://www.inkscape.org/) -->

<svg
   xmlns:dc="http://purl.org/dc/elements/1.1/"
   xmlns:cc="http://creativecommons.org/ns#"
   xmlns:rdf="http://www.w3.org/1999/02/22-rdf-syntax-ns#"
   xmlns:svg="http://www.w3.org/2000/svg"
   xmlns="http://www.w3.org/2000/svg"
   xmlns:sodipodi="http://sodipodi.sourceforge.net/DTD/sodipodi-0.dtd"
   xmlns:inkscape="http://www.inkscape.org/namespaces/inkscape"
   version="1.1"
   id="svg2"
   width="512"
   height="512"
   viewBox="0 0 512 512"
   sodipodi:docname="littleaircraftRed.svg"
   inkscape:version="0.92.4 (5da689c313, 2019-01-14)">
  <metadata
     id="metadata8">
    <rdf:RDF>
      <cc:Work
         rdf:about="">
        <dc:format>image/svg+xml</dc:format>
        <dc:type
           rdf:resource="http://purl.org/dc/dcmitype/StillImage" />
        <dc:title></dc:title>
      </cc:Work>
    </rdf:RDF>
  </metadata>
  <defs
     id="defs6" />
  <sodipodi:namedview
     pagecolor="#ffffff"
     bordercolor="#666666"
     borderopacity="1"
     objecttolerance="10"
     gridtolerance="10"
     guidetolerance="10"
     inkscape:pageopacity="0"
     inkscape:pageshadow="2"
     inkscape:window-width="1374"
     inkscape:window-height="868"
     id="namedview4"
     showgrid="false"
     inkscape:zoom="0.921875"
     inkscape:cx="256"
     inkscape:cy="256"
     inkscape:window-x="66"
     inkscape:window-y="0"
     inkscape:window-maximized="1"
     inkscape:current-layer="svg2" />
  <path
     style="fill:#ff0000;fill-opacity:1"
     d="m 254.6654,506.99225 c -0.54765,-2.73823 -0.95061,-2.95908 -6.375,-3.49392 -6.87557,-0.67792 -28.22176,-3.11896 -44.2904,-5.06482 -39.9965,-4.84346 -39.90521,-4.82897 -40.52457,-6.43499 -1.00865,-2.6155 -1.80915,-21.49087 -1.07694,-25.39388 0.60794,-3.2406 1.13639,-3.75232 4.89154,-4.73666 7.11769,-1.86577 14.88829,-3.78011 22.20997,-5.47158 3.85,-0.88943 9.475,-2.2469 12.5,-3.01659 3.025,-0.76969 11.35,-2.79238 18.5,-4.49487 20.14116,-4.79583 21.5,-5.17623 21.5,-6.01888 0,-0.4341 -0.72483,-3.61855 -1.61072,-7.07655 -0.8859,-3.458 -1.76671,-7.20685 -1.95735,-8.33077 -0.19064,-1.12392 -0.83359,-4.29349 -1.42879,-7.04349 -0.5952,-2.75 -1.23816,-6.35 -1.42881,-8 -0.19065,-1.65 -0.89256,-6.6 -1.55981,-11 -0.66725,-4.4 -1.33886,-9.575 -1.49247,-11.5 -1.67624,-21.00656 -2.57206,-43.10013 -3.15136,-77.7217 l -0.69068,-41.2783 h -2.86475 c -2.70673,0 -4.15247,-1.79129 -5.24611,-6.5 -0.12774,-0.55 -0.76112,-2.85946 -1.40751,-5.13213 l -1.17525,-4.13213 -29.24319,-0.46752 c -18.46485,-0.2952 -33.66612,-1.05668 -41.2432,-2.066 -11.13471,-1.48323 -18.135,-2.30339 -52.999997,-6.20957 -7.15,-0.80107 -18.85,-2.11772 -26,-2.92591 -7.15,-0.80818 -19.525,-2.18637 -27.5,-3.06264 -21.23543,-2.33329 -31.1093905,-3.51 -34.5824205,-4.12128 -2.9057,-0.51142 -3.15866,-0.92491 -4.41252,-7.21267 -1.61569996,-8.10223 -1.75774996,-25.89523 -0.22954,-28.75071 0.94869,-1.77264 2.95892,-2.31576 13.9166705,-3.75999 7.04429,-0.92844 17.53281,-2.36112 23.30781,-3.18373 5.775,-0.82261 11.98283,-1.49117 13.79519,-1.48569 1.81235,0.005 7.66235,-0.63847 13,-1.43101 5.33764,-0.79254 16.00481,-2.17181 23.70481,-3.06504 19.406797,-2.25126 54.367417,-6.52623 69.999997,-8.55956 4.95,-0.64385 11.1375,-1.39974 13.75,-1.67976 l 4.75,-0.50912 0.02,-11.12277 c 0.022,-12.25372 2.14835,-27.84555 3.87595,-28.42142 0.60723,-0.20241 1.10406,-1.42422 1.10406,-2.71513 0,-1.63898 0.67884,-2.47787 2.25,-2.78049 l 2.25,-0.43337 -2.25,-0.13618 c -1.2375,-0.0749 -2.25,-0.57707 -2.25,-1.11594 0,-1.75977 3.19768,-9.02024 3.97272,-9.02024 0.68176,0 4.02728,7.65098 4.02728,9.21011 0,0.35378 -0.7875,0.84904 -1.75,1.10056 -1.66667,0.43555 -1.66667,0.46285 0,0.57333 1.15191,0.0764 1.75,0.94194 1.75,2.53267 0,1.32916 0.50217,2.58405 1.11593,2.78864 1.5614,0.52047 2.57571,7.94934 3.42415,25.07866 l 0.7289,14.71603 h 9.8655 H 216 v -8.3185 c 0,-13.98886 4.12262,-23.6815 10.07258,-23.6815 H 229 l 0.0545,-17.75 c 0.0906,-29.511368 1.59977,-58.88731 3.45498,-67.249995 1.20902,-5.449895 2.69613,-12.603927 3.01411,-14.5 0.63066,-3.760597 5.29422,-18.246969 6.83074,-21.21826 0.8438,-1.631737 3.09966,-7.126477 5.01302,-12.210532 3.6731,-9.7599943 5.85994,-13.0712083 8.63265,-13.0712083 2.77271,0 4.95955,3.311214 8.63267,13.0712083 1.91336,5.084055 4.16922,10.578795 5.01302,12.210532 1.53652,2.971291 6.20008,17.457663 6.83074,21.21826 0.31798,1.896073 1.80509,9.050105 3.01411,14.5 1.85521,8.362685 3.3644,37.738627 3.45498,67.249995 l 0.0545,17.75 h 2.92742 c 5.94996,0 10.07258,9.69264 10.07258,23.6815 v 8.3185 h 9.86551 9.8655 l 0.72891,-14.71603 c 0.84844,-17.12932 1.86275,-24.55819 3.42415,-25.07866 0.61376,-0.20459 1.11593,-1.42818 1.11593,-2.71909 0,-1.63898 0.67884,-2.47787 2.25,-2.78049 l 2.25,-0.43337 -2.25,-0.13618 c -1.2375,-0.0749 -2.25,-0.45864 -2.25,-0.85275 0,-1.61368 3.32724,-9.28343 4.02728,-9.28343 0.75694,0 3.97272,7.24222 3.97272,8.94691 0,0.49854 -0.7875,1.11224 -1.75,1.36376 -1.66667,0.43555 -1.66667,0.46285 0,0.57333 1.15191,0.0764 1.75,0.94194 1.75,2.53267 0,1.32916 0.49683,2.58227 1.10406,2.78468 1.7276,0.57587 3.85392,16.1677 3.87595,28.42142 l 0.02,11.12277 4.75,0.50912 c 2.6125,0.28002 8.8,1.03591 13.75,1.67976 15.63258,2.03333 50.5932,6.3083 70,8.55956 7.7,0.89323 18.36716,2.2725 23.70481,3.06504 5.33765,0.79254 11.18765,1.43649 13,1.43101 1.81235,-0.005 8.02019,0.66308 13.79519,1.48569 5.775,0.82261 16.26351,2.25529 23.30781,3.18373 10.95775,1.44423 12.96798,1.98735 13.91667,3.75999 1.52821,2.85548 1.38615,20.64848 -0.22954,28.75071 -1.25386,6.28776 -1.50682,6.70125 -4.41253,7.21267 -3.47302,0.61128 -13.34698,1.78799 -34.58241,4.12128 -7.975,0.87627 -20.35,2.25446 -27.5,3.06264 -7.15,0.80819 -18.85,2.12484 -26,2.92591 -34.865,3.90618 -41.86529,4.72634 -53,6.20957 -7.57708,1.00932 -22.77835,1.7708 -41.2432,2.066 l -29.24319,0.46752 -1.17525,4.13213 c -0.64639,2.27267 -1.27977,4.58213 -1.40751,5.13213 -1.09364,4.70871 -2.53938,6.5 -5.24611,6.5 H 283.32 l -0.69068,41.2783 c -0.5793,34.62157 -1.47512,56.71514 -3.15136,77.7217 -0.15361,1.925 -0.82522,7.1 -1.49247,11.5 -0.66725,4.4 -1.36916,9.35 -1.55981,11 -0.19065,1.65 -0.83361,5.25 -1.42881,8 -0.5952,2.75 -1.23815,5.91957 -1.42879,7.04349 -0.19064,1.12392 -1.07145,4.87277 -1.95735,8.33077 -0.88589,3.458 -1.61072,6.64245 -1.61072,7.07655 0,0.84265 1.35884,1.22305 21.5,6.01888 7.15,1.70249 15.475,3.72518 18.5,4.49487 3.025,0.76969 8.65,2.12716 12.5,3.01659 7.32168,1.69147 15.09228,3.60581 22.20997,5.47158 3.75515,0.98434 4.2836,1.49606 4.89154,4.73666 0.73221,3.90301 -0.0683,22.77838 -1.07694,25.39388 -0.61936,1.60602 -0.52807,1.59153 -40.52457,6.43499 -16.06864,1.94586 -37.41483,4.3869 -44.2904,5.06482 -5.42439,0.53484 -5.82735,0.75569 -6.375,3.49392 -0.32153,1.60765 -0.9221,2.923 -1.3346,2.923 -0.4125,0 -1.01307,-1.31535 -1.3346,-2.923 z"
     id="path12"
     inkscape:connector-curvature="0" />
</svg>
